<?xml version="1.0" encoding="utf-8"?>
<!-- Generator: Adobe Illustrator 23.0.6, SVG Export Plug-In . SVG Version: 6.00 Build 0)  -->
<svg version="1.1" id="Capa_1" xmlns="http://www.w3.org/2000/svg" xmlns:xlink="http://www.w3.org/1999/xlink" x="0px" y="0px"
	 viewBox="0 0 610 265.8" style="enable-background:new 0 0 610 265.8;" xml:space="preserve">
<style type="text/css">
	.st0{fill:#0081A3;}
	.st1{fill:#FF836B;}
</style>
<title>404</title>
<path class="st0" d="M184.7,198.7h-27V245h-46.2v-46.4H16v-32.9l98.1-144.5h43.6v140.7h27L184.7,198.7z M111.5,161.9v-38
	c0-6.3,0.3-15.5,0.8-27.6c0.5-12,0.9-19,1.2-21h-1.2c-3.9,8.5-8.4,16.8-13.6,24.6l-41,61.9H111.5z"/>
<path class="st1" d="M385.1,133.1c0,39.1-6.4,68-19.2,86.8s-32.5,28.2-59.2,28.2c-25.8,0-45.3-9.7-58.4-29.1
	c-13.1-19.4-19.7-48-19.7-85.9c0-39.5,6.4-68.6,19.1-87.3c12.8-18.7,32.4-28.1,59-28.1c25.8,0,45.3,9.8,58.6,29.4
	C378.5,66.6,385.1,95.3,385.1,133.1z M275.6,133.1c0,27.5,2.4,47.1,7.1,59c4.7,11.9,12.7,17.8,24,17.8c11,0,19-6,23.9-18.1
	s7.4-31.6,7.3-58.8c0-27.5-2.5-47.2-7.4-59.2s-12.9-18-23.8-18c-11.1,0-19.1,6-23.9,18C278,85.9,275.6,105.7,275.6,133.1z"/>
<path class="st0" d="M306.6,265.8c-30.1,0-53.2-11.5-68.6-34.3c-11.8-17.4-25.8-48.6-25.8-98.4c0-52,13.7-83.1,25.2-100
	c15-22,38.3-33.2,69.2-33.2c30.1,0,53.3,11.7,68.7,34.6c11.9,17.6,26,49,26,98.5c0,51.5-13.8,82.5-25.3,99.4
	C361.1,254.6,337.7,265.8,306.6,265.8z M306.6,7.7c-28.6,0-49.2,9.7-62.8,29.8c-10.9,16-23.9,45.6-23.9,95.7
	c0,47.8,13.3,77.5,24.5,94.1c14.1,20.8,34.4,30.9,62.2,30.9c28.8,0,49.4-9.8,63.1-29.9c10.9-16,24-45.6,24-95.1
	c0-47.6-13.4-77.5-24.7-94.2C354.9,17.9,334.4,7.7,306.6,7.7z"/>
<path class="st1" d="M174,260.6H95.3v-44.8H0v-57.3l0.7-1L105.1,4.4h68.6v142.2h27.9v67.6H174V260.6z M103,252.9h63.4v-46.4h27.5
	v-52.2H166V12.1h-56.8L7.7,160.9v47.2H103V252.9z"/>
<path class="st0" d="M593.7,198.7h-27V245h-46.2v-46.4h-95.6v-32.9l98.1-144.5h43.6v140.7h27L593.7,198.7z M520.5,161.9v-38
	c0-6.3,0.3-15.5,0.8-27.6c0.5-12,0.9-19,1.2-21h-1.2c-3.9,8.5-8.4,16.8-13.6,24.6l-41,61.9H520.5z"/>
<path class="st1" d="M584.5,260.6h-80.7v-44.8h-95.3v-57.3l0.7-1L513.5,4.4H583v142.2h27v67.6h-25.5V260.6z M511.5,252.9h65.4v-46.4
	h25.5v-52.2h-27V12.1h-57.7L416.2,160.9v47.2h95.3L511.5,252.9z"/>
</svg>
