<svg width="20" height="18" fill="white" aria-hidden="true" xmlns="http://www.w3.org/2000/svg" viewBox="0 0 26.05 23.25"><path d="M25.64,3.91a1.87,1.87,0,0,0-1.47-.71h-18L4.19.77A2.16,2.16,0,0,0,2.53,0H0V1.25H2.53a.9.9,0,0,1,.7.33L5.34,4.1,7.22,14.62a1.54,1.54,0,0,0,1.5,1.24H21.51a2.7,2.7,0,0,0,2.65-2.12L26,5.5A1.9,1.9,0,0,0,25.64,3.91Zm-2.7,9.55a1.46,1.46,0,0,1-1.43,1.15H8.72a.29.29,0,0,1-.27-.22L6.68,4.45H24.17a.64.64,0,0,1,.62.77Z"/><path d="M10.56,17.7a2.78,2.78,0,1,0,2.78,2.77A2.78,2.78,0,0,0,10.56,17.7Zm0,4.3a1.53,1.53,0,1,1,1.53-1.53A1.53,1.53,0,0,1,10.56,22Z"/><path d="M20.35,17.7a2.78,2.78,0,1,0,2.78,2.77A2.77,2.77,0,0,0,20.35,17.7Zm0,4.3a1.53,1.53,0,1,1,1.53-1.53A1.52,1.52,0,0,1,20.35,22Z"/></svg>
