<svg id="Слой_1" data-name="Слой 1" xmlns="http://www.w3.org/2000/svg" viewBox="0 0 13.5 15.25"><defs><style>.cls-1{fill:#2d9bb8;}</style></defs><title>Скачать</title><path class="cls-1" d="M12.88,15.25H.63A.63.63,0,0,1,0,14.62v-3.8a.63.63,0,0,1,1.25,0V14h11V10.82a.63.63,0,0,1,1.25,0v3.8A.63.63,0,0,1,12.88,15.25Z"/><path class="cls-1" d="M6.75,11.93a.62.62,0,0,1-.62-.62V.63A.63.63,0,0,1,6.75,0a.63.63,0,0,1,.63.63V11.31A.63.63,0,0,1,6.75,11.93Z"/><path class="cls-1" d="M6.75,12.45a.64.64,0,0,1-.46-.21L3.35,9a.61.61,0,0,1,0-.88.63.63,0,0,1,.88,0l2.46,2.68L9,8.21a.62.62,0,0,1,.88-.08A.63.63,0,0,1,9.93,9l-2.7,3.21a.66.66,0,0,1-.47.23Z"/></svg>