<svg fill="white" width="18" height="18" xmlns="http://www.w3.org/2000/svg" viewBox="0 0 17.08 18"><path class="cls-1" d="M16.53,7.92H.55A.54.54,0,0,1,0,7.38a.55.55,0,0,1,.55-.55h16a.55.55,0,0,1,.55.55A.55.55,0,0,1,16.53,7.92Z"/><path class="cls-1" d="M16.53,18H.55a.55.55,0,1,1,0-1.09h16a.55.55,0,1,1,0,1.09Z"/><path class="cls-1" d="M16.53,11.94H6a2.27,2.27,0,0,0-4.43,0h-1a.48.48,0,0,0-.48.48.47.47,0,0,0,.48.47h1a2.27,2.27,0,0,0,4.45,0H16.53a.47.47,0,0,0,.47-.47A.48.48,0,0,0,16.53,11.94ZM3.75,13.76a1.33,1.33,0,1,1,1.33-1.32A1.32,1.32,0,0,1,3.75,13.76Z"/><path class="cls-1" d="M.55,2.76h9.69a2.27,2.27,0,0,0,4.43,0h1.86a.47.47,0,1,0,0-.94H14.68a2.27,2.27,0,0,0-4.45,0H.55a.47.47,0,1,0,0,.94ZM12.45.94a1.33,1.33,0,1,1-1.32,1.33A1.34,1.34,0,0,1,12.45.94Z"/></svg>
