<svg id="Capa_1" data-name="Capa 1" xmlns="http://www.w3.org/2000/svg" viewBox="0 0 53 53"><defs><style>.cls-1{fill:#fff;}.cls-2{fill:#2d9bb8;}</style></defs><title>Нет фото</title><rect class="cls-1" width="53" height="53"/><path class="cls-2" d="M26.5,26.06c4.45,0,8-4.38,8-9.78s-1.18-9.78-8-9.78-8,4.38-8,9.78S22.05,26.06,26.5,26.06Z"/><path class="cls-2" d="M11.29,41Z"/><path class="cls-2" d="M41.71,41.25Z"/><path class="cls-2" d="M41.69,40.6c-.15-9.41-1.38-12.09-10.78-13.79A5.62,5.62,0,0,1,26.5,28.5a5.62,5.62,0,0,1-4.41-1.69c-9.3,1.68-10.61,4.32-10.78,13.49,0,.75,0,.78,0,.7v1S13.53,46.5,26.5,46.5,41.71,42,41.71,42v-.74A5.76,5.76,0,0,1,41.69,40.6Z"/></svg>