<svg fill="red" width="24" height="24" aria-hidden="true" xmlns="http://www.w3.org/2000/svg" viewBox="0 0 23.25 23.25"><path class="cls-1" d="M9.23,10.38a2.11,2.11,0,1,1,2.1-2.1A2.11,2.11,0,0,1,9.23,10.38Zm0-3a.86.86,0,1,0,0,1.71.85.85,0,0,0,.85-.85A.86.86,0,0,0,9.23,7.42Z"/><path class="cls-1" d="M14.16,16.3a2.11,2.11,0,1,1,2.1-2.1A2.11,2.11,0,0,1,14.16,16.3Zm0-3a.86.86,0,1,0,0,1.71A.85.85,0,0,0,15,14.2.86.86,0,0,0,14.16,13.34Z"/><rect class="cls-1" x="5.73" y="10.76" width="10.74" height="1.25" transform="translate(-4.8 11.34) rotate(-45.57)"/><path class="cls-1" d="M11.67,23.25a2,2,0,0,1-2-1.66A10.3,10.3,0,0,1,6,20.11a2,2,0,0,1-2.57-.23,2,2,0,0,1-.25-2.53,10.08,10.08,0,0,1-1.66-4A2,2,0,0,1,0,11.38a2,2,0,0,1,1.61-2A10.11,10.11,0,0,1,3.27,5.66,2,2,0,0,1,6.09,3,10.18,10.18,0,0,1,9.37,1.6l.37-.07a2,2,0,0,1,3.89,0,10.24,10.24,0,0,1,3.79,1.59,2,2,0,0,1,2.74,2.8A10.35,10.35,0,0,1,21.61,9.4a2,2,0,0,1,.06,3.94,10.07,10.07,0,0,1-1.45,3.72,2,2,0,0,1-.2,2.61,2,2,0,0,1-2.55.25A10.23,10.23,0,0,1,14,21.46l-.22.05-.12-.29v0a1.27,1.27,0,0,1,0,.2l0,.09h0A2,2,0,0,1,11.67,23.25ZM5.76,18.5l.55.3a8.93,8.93,0,0,0,4.08,1.63l.63.09-.1.72a.76.76,0,1,0,1.51,0s0-.08,0-.11l-.1-.63.77-.12.34-.07.29-.06a8.82,8.82,0,0,0,3.42-1.64l.49-.38.38.49a.78.78,0,0,0,1.13.07.77.77,0,0,0,0-1.07l-.1-.08-.5-.36.36-.51a8.89,8.89,0,0,0,1.61-4.1l.08-.64.64.1a.76.76,0,1,0,0-1.51l-.61.1-.16-.61a8.89,8.89,0,0,0-1.61-3.84l-.34-.47L19,5.43a.76.76,0,1,0-1-1.11l-.38.44-.48-.33A8.91,8.91,0,0,0,13,2.7l-.6-.09.07-.6a.76.76,0,1,0-1.51,0l0,.57-.55.11c-.25,0-.5.08-.75.13A9,9,0,0,0,6.4,4.26l-.49.35-.37-.48a.75.75,0,0,0-1.08,0,.77.77,0,0,0,0,1.07L5,5.57,4.54,6a9,9,0,0,0-1.79,4.07l-.1.56L2,10.62a.76.76,0,0,0,0,1.52l.57,0,.12.57A8.86,8.86,0,0,0,4.49,17l.39.51-.52.38a.75.75,0,0,0-.26.56.79.79,0,0,0,.22.54A.78.78,0,0,0,5.4,19Zm7.8,2.42v0h0Z"/></svg>
