<svg id="Слой_1" data-name="Слой 1" xmlns="http://www.w3.org/2000/svg" viewBox="0 0 17.55 11.07"><defs><style>.cls-1{fill:#2d9bb8;}</style></defs><title>Просмотр</title><path class="cls-1" d="M8.77,11.07c-4.68,0-8.35-5-8.5-5.17L0,5.53l.27-.37C.42,5,4.09,0,8.77,0s8.35,5,8.51,5.16l.27.37-.27.37C17.12,6.11,13.46,11.07,8.77,11.07ZM1.57,5.53c.91,1.1,3.84,4.29,7.2,4.29S15.06,6.63,16,5.53c-.92-1.1-3.85-4.28-7.21-4.28S2.48,4.43,1.57,5.53Z" transform="translate(0 0)"/><path class="cls-1" d="M8.77,9.48a3.95,3.95,0,1,1,4-3.95A3.95,3.95,0,0,1,8.77,9.48Zm0-6.64a2.7,2.7,0,1,0,2.7,2.69A2.7,2.7,0,0,0,8.77,2.84Z" transform="translate(0 0)"/></svg>